<svg width="38" height="38" viewBox="0 0 38 38" fill="none" xmlns="http://www.w3.org/2000/svg">
<g clip-path="url(#clip0_1_321)">
<path d="M10.4817 17.0842C12.7617 21.565 16.435 25.2225 20.9158 27.5183L24.3992 24.035C24.8267 23.6075 25.46 23.465 26.0142 23.655C27.7875 24.2408 29.7033 24.5575 31.6667 24.5575C32.5375 24.5575 33.25 25.27 33.25 26.1408V31.6667C33.25 32.5375 32.5375 33.25 31.6667 33.25C16.7992 33.25 4.75 21.2008 4.75 6.33333C4.75 5.4625 5.4625 4.75 6.33333 4.75H11.875C12.7458 4.75 13.4583 5.4625 13.4583 6.33333C13.4583 8.3125 13.775 10.2125 14.3608 11.9858C14.535 12.54 14.4083 13.1575 13.965 13.6008L10.4817 17.0842Z" fill="#6E90E6"/>
</g>
<defs>
<clipPath id="clip0_1_321">
<rect width="38" height="38" fill="white"/>
</clipPath>
</defs>
</svg>
