<svg width="30" height="30" viewBox="0 0 30 30" fill="none" xmlns="http://www.w3.org/2000/svg">
<g clip-path="url(#clip0_1_244)">
<path opacity="0.3" d="M27.5 15C27.5 8.09644 21.9036 2.5 15 2.5C8.09644 2.5 2.5 8.09644 2.5 15C2.5 21.9036 8.09644 27.5 15 27.5C21.9036 27.5 27.5 21.9036 27.5 15Z" fill="white"/>
<path fill-rule="evenodd" clip-rule="evenodd" d="M7.70994 18.1934C7.327 17.619 7.48221 16.8429 8.05662 16.4599C8.63103 16.077 9.40712 16.2322 9.79006 16.8066C11.2364 18.9761 12.9429 20 15 20C17.0571 20 18.7636 18.9761 20.2099 16.8066C20.5929 16.2322 21.369 16.077 21.9434 16.4599C22.5178 16.8429 22.673 17.619 22.2901 18.1934C20.403 21.0239 17.9429 22.5 15 22.5C12.0571 22.5 9.59698 21.0239 7.70994 18.1934Z" fill="white"/>
</g>
<defs>
<clipPath id="clip0_1_244">
<rect width="30" height="30" fill="white"/>
</clipPath>
</defs>
</svg>
