<svg width="30" height="30" viewBox="0 0 30 30" fill="none" xmlns="http://www.w3.org/2000/svg">
<g clip-path="url(#clip0_1_155)">
<path fill-rule="evenodd" clip-rule="evenodd" d="M20.4676 24.9237L27.7783 13.9576C28.0655 13.5267 27.9491 12.9447 27.5183 12.6575C27.3643 12.5548 27.1834 12.5 26.9983 12.5H21.25V5.59637C21.25 5.07861 20.8303 4.65887 20.3125 4.65887C19.9991 4.65887 19.7063 4.81553 19.5325 5.07634L12.2217 16.0425C11.9345 16.4733 12.0509 17.0554 12.4817 17.3426C12.6357 17.4452 12.8167 17.5 13.0017 17.5H18.75V24.4037C18.75 24.9214 19.1697 25.3412 19.6875 25.3412C20.001 25.3412 20.2937 25.1845 20.4676 24.9237Z" fill="white"/>
<path opacity="0.3" fill-rule="evenodd" clip-rule="evenodd" d="M5.625 6.25H11.875C12.9105 6.25 13.75 7.08947 13.75 8.125C13.75 9.16053 12.9105 10 11.875 10H5.625C4.58947 10 3.75 9.16053 3.75 8.125C3.75 7.08947 4.58947 6.25 5.625 6.25ZM5.625 21.25H11.875C12.9105 21.25 13.75 22.0895 13.75 23.125C13.75 24.1605 12.9105 25 11.875 25H5.625C4.58947 25 3.75 24.1605 3.75 23.125C3.75 22.0895 4.58947 21.25 5.625 21.25ZM3.125 13.75H8.125C9.16053 13.75 10 14.5895 10 15.625C10 16.6605 9.16053 17.5 8.125 17.5H3.125C2.08947 17.5 1.25 16.6605 1.25 15.625C1.25 14.5895 2.08947 13.75 3.125 13.75Z" fill="white"/>
</g>
<defs>
<clipPath id="clip0_1_155">
<rect width="30" height="30" fill="white"/>
</clipPath>
</defs>
</svg>
