<svg width="50" height="50" viewBox="0 0 50 50" fill="none" xmlns="http://www.w3.org/2000/svg">
<path d="M50 25C50 18.3696 47.3661 12.0107 42.6777 7.32233C37.9893 2.63392 31.6304 5.00582e-07 25 0C18.3696 -5.00582e-07 12.0107 2.63392 7.32233 7.32233C2.63392 12.0107 1.00116e-06 18.3696 0 25L25 25H50Z" fill="#2354AC"/>
<path d="M50 25C50 31.6304 47.3661 37.9893 42.6777 42.6777C37.9893 47.3661 31.6304 50 25 50C18.3696 50 12.0107 47.3661 7.32233 42.6777C2.63392 37.9893 1.00116e-06 31.6304 0 25L25 25H50Z" fill="#EBCB44"/>
</svg>
