<svg width="24" height="40" viewBox="0 0 24 40" fill="none" xmlns="http://www.w3.org/2000/svg">
<path d="M11.874 0C10.9513 1.0475 10.3889 2.41777 10.3889 3.92269C10.4434 7.22659 10.8483 10.5265 10.8839 13.8235C10.9572 16.9026 10.0345 19.7937 8.9117 22.6154C8.53745 23.3946 8.1335 24.1569 7.72856 24.9213L6.54046 24.6817C5.46821 24.4678 4.77119 23.4253 4.98604 22.353C5.17316 21.4154 5.99889 20.759 6.91966 20.759L7.35332 20.8055L6.38601 12.7265C6.07017 9.13249 4.21477 5.97414 1.48512 3.92467C1.01582 3.57221 0.517811 3.24944 0 2.96529V31.6479H6.62165C7.11669 34.331 8.59587 36.6775 10.675 38.2814C11.1691 38.622 11.5839 39.0715 11.8819 39.5962C12.179 39.0715 12.5938 38.622 13.0888 38.2814C15.168 36.6735 16.6472 34.332 17.1422 31.6479H23.7639V2.96529C23.2461 3.24944 22.7481 3.57221 22.2788 3.92467C19.5461 5.97711 17.6947 9.13249 17.3779 12.7265L16.4106 20.8055L16.8442 20.759C17.765 20.7629 18.5907 21.4144 18.7778 22.353C18.9917 23.4253 18.2947 24.4668 17.2234 24.6817L16.0353 24.9213C15.6304 24.1579 15.2254 23.3956 14.8522 22.6154C13.7284 19.7956 12.8057 16.9046 12.8789 13.8235C12.9146 10.5166 13.3195 7.21966 13.374 3.92269C13.374 2.41777 12.8116 1.05146 11.8889 0H11.874ZM1.97323 7.09887C3.25439 8.6028 4.11477 10.475 4.36922 12.5374L5.16128 19.2006C4.14645 19.7055 3.37914 20.6323 3.08806 21.754H1.9663V7.10085L1.97323 7.09887ZM21.7748 7.09887V21.752H20.653C20.3639 20.6313 19.5947 19.7046 18.5798 19.1986L19.3719 12.5354C19.6283 10.475 20.4887 8.60082 21.7679 7.0959L21.7748 7.09887ZM11.874 20.4946C12.4057 22.2342 13.1374 23.8906 14.0472 25.4233C13.1819 25.6856 12.4295 26.1965 11.874 26.8846C11.3186 26.1965 10.5661 25.6866 9.7008 25.4223C10.6107 23.8866 11.3423 22.2342 11.874 20.4946ZM1.97323 23.7362H3.09499C3.44845 25.1035 4.51575 26.1826 5.86721 26.5599L6.81867 26.7767C6.56422 27.6994 6.42462 28.6677 6.42462 29.6776H1.96927V23.7371L1.97323 23.7362ZM20.656 23.7362H21.7778V29.6766H17.3224C17.3224 28.6727 17.1828 27.6994 16.9284 26.7757L17.8798 26.5589C19.2362 26.1817 20.3026 25.1015 20.6521 23.7352L20.656 23.7362ZM8.75527 27.2311C9.95623 27.4004 10.882 28.4291 10.882 29.6756H8.40676C8.40676 28.8271 8.5325 28.0083 8.75527 27.2311ZM14.9898 27.2311C15.2126 28.0083 15.3383 28.8252 15.3383 29.6756H12.8631C12.8631 28.4272 13.7888 27.4004 14.9898 27.2311ZM8.63349 31.6568H10.8839V35.825C9.79485 34.6815 9.00279 33.2508 8.63349 31.6568ZM12.8641 31.6568H15.1145C14.7502 33.2508 13.9562 34.6835 12.8641 35.825V31.6568Z" fill="white"/>
</svg>
