<svg width="29" height="31" viewBox="0 0 29 31" fill="none" xmlns="http://www.w3.org/2000/svg">
<g clip-path="url(#clip0_1_302)">
<path d="M25.7539 2.99304C24.9909 2.31038 21.9391 0.0616361 15.0724 0.0214799C15.0724 0.0214799 7.00097 -0.460399 3.06567 3.15366C0.857075 5.36225 0.094105 8.53459 0.0137926 12.5101C-0.0665198 16.4855 -0.186978 23.9144 7.00098 25.9624V29.0544C7.00098 29.0544 6.96082 30.2992 7.76394 30.5402C8.76785 30.8614 9.33003 29.8977 10.2938 28.8938C10.8158 28.3316 11.5386 27.5285 12.0606 26.886C16.9597 27.2875 20.7344 26.3639 21.1761 26.2033C22.18 25.8821 27.7617 25.1593 28.6853 17.7304C29.6491 10.0204 28.2838 5.16147 25.7539 2.99304ZM26.5972 17.128C25.8342 23.3522 21.2966 23.7538 20.4533 23.9947C20.0919 24.1152 16.7991 24.9183 12.6228 24.6774C12.6228 24.6774 9.53081 28.4119 8.52691 29.4158C8.36629 29.5764 8.20566 29.6166 8.08519 29.6166C7.92456 29.5764 7.88441 29.3756 7.88441 29.0946C7.88441 28.693 7.92457 23.9546 7.92457 23.9546C1.86098 22.268 2.22239 15.9233 2.26254 12.5904C2.34285 9.2574 2.9452 6.56693 4.79239 4.71975C8.12535 1.70803 14.9921 2.14975 14.9921 2.14975C20.7745 2.18991 23.5453 3.91662 24.1878 4.51897C26.2759 6.36615 27.3602 10.7432 26.5972 17.128Z" fill="#665CA7"/>
<path d="M17.8835 12.3495C17.8032 10.8235 17.0402 10.0204 15.5544 9.94006" stroke="#665CA7" stroke-width="0.77381" stroke-linecap="round" stroke-linejoin="round"/>
<path d="M19.8914 12.9921C19.9316 11.5866 19.4899 10.3819 18.6465 9.45824C17.7631 8.49445 16.5583 7.9724 15.0323 7.85193" stroke="#665CA7" stroke-width="0.77381" stroke-linecap="round" stroke-linejoin="round"/>
<path d="M21.8993 13.7952C21.8993 11.3456 21.1363 9.41803 19.6907 8.01251C18.245 6.60699 16.4379 5.88416 14.2694 5.88416" stroke="#665CA7" stroke-width="0.77381" stroke-linecap="round" stroke-linejoin="round"/>
<path d="M15.6347 17.5296C15.6347 17.5296 16.1969 17.5697 16.478 17.2083L17.0402 16.4855C17.3212 16.1241 17.9637 15.8832 18.6464 16.2446C19.0078 16.4453 19.6503 16.8469 20.0519 17.1682C20.4936 17.4894 21.377 18.2122 21.377 18.2122C21.8187 18.5736 21.8991 19.0957 21.618 19.6578C21.3369 20.1799 20.9353 20.6617 20.4133 21.1035C20.0117 21.4649 19.6101 21.6255 19.2086 21.7058H19.048C18.8873 21.7058 18.6866 21.6656 18.5259 21.6255C17.9236 21.4649 16.9197 21.0232 15.193 20.0996C14.1088 19.4972 13.1852 18.8547 12.4222 18.2524C12.0206 17.9311 11.5789 17.5697 11.1773 17.128L11.0167 16.9674C10.575 16.5257 10.2136 16.1241 9.89235 15.7225C9.29 14.9596 8.6475 14.036 8.04516 12.9518C7.12157 11.2652 6.67985 10.2613 6.51923 9.61879C6.47907 9.45817 6.43891 9.29755 6.43891 9.09677V8.93613C6.47907 8.53457 6.67985 8.13301 7.04125 7.73145C7.48297 7.24957 7.96485 6.84801 8.48688 6.52676C9.04907 6.24567 9.5711 6.32598 9.9325 6.7677C9.9325 6.7677 10.6553 7.65115 10.9766 8.09286C11.2577 8.49443 11.6592 9.13693 11.9002 9.49833C12.2616 10.1408 12.0206 10.8235 11.6994 11.1046L10.9766 11.6668C10.6152 11.9479 10.6553 12.51 10.6553 12.51C10.6553 12.51 11.6592 16.4855 15.6347 17.5296Z" fill="#665CA7"/>
</g>
<defs>
<clipPath id="clip0_1_302">
<rect width="29" height="30.603" fill="white"/>
</clipPath>
</defs>
</svg>
