<svg width="30" height="30" viewBox="0 0 30 30" fill="none" xmlns="http://www.w3.org/2000/svg">
<path d="M26.9912 9.00376C26.8489 8.47551 26.5706 7.99376 26.1842 7.60647C25.7978 7.21917 25.3167 6.93983 24.7887 6.79626C22.8312 6.25876 15 6.25001 15 6.25001C15 6.25001 7.16999 6.24126 5.21124 6.75501C4.68364 6.90519 4.20351 7.18848 3.81694 7.57768C3.43037 7.96687 3.15034 8.44891 3.00373 8.97751C2.48748 10.935 2.48248 14.995 2.48248 14.995C2.48248 14.995 2.47748 19.075 2.98998 21.0125C3.27748 22.0838 4.12124 22.93 5.19374 23.2188C7.17124 23.7563 14.9812 23.765 14.9812 23.765C14.9812 23.765 22.8125 23.7738 24.77 23.2613C25.2981 23.1179 25.7797 22.8392 26.167 22.4527C26.5544 22.0662 26.8342 21.5853 26.9787 21.0575C27.4962 19.1013 27.5 15.0425 27.5 15.0425C27.5 15.0425 27.525 10.9613 26.9912 9.00376ZM12.495 18.7563L12.5012 11.2563L19.01 15.0125L12.495 18.7563Z" fill="#EA3323"/>
</svg>
